<?xml version="1.0" encoding="UTF-8"?>
<svg id="Layer_1" data-name="Layer 1" xmlns="http://www.w3.org/2000/svg" xmlns:xlink="http://www.w3.org/1999/xlink" viewBox="0 0 282.38 210.05">
  <defs>
    <style>
      .cls-1, .cls-2 {
        fill-rule: evenodd;
      }

      .cls-1, .cls-3 {
        fill: #fff;
      }

      .cls-2, .cls-4 {
        fill: #003b51;
      }

      .cls-5 {
        stroke: #003b51;
        stroke-miterlimit: 22.93;
        stroke-width: 8px;
      }

      .cls-5, .cls-6 {
        fill: none;
      }

      .cls-6 {
        clip-rule: evenodd;
      }

      .cls-7 {
        clip-path: url(#clippath);
      }
    </style>
    <clipPath id="clippath">
      <path class="cls-6" d="M140.41,36.84c25.81,0,46.73,20.92,46.73,46.73s-20.92,46.73-46.73,46.73-46.73-20.92-46.73-46.73,20.92-46.73,46.73-46.73"/>
    </clipPath>
  </defs>
  <path class="cls-4" d="M174.51,181.56c0,1.14.16,1.97.47,2.48.46.74,1.09,1.11,1.91,1.11.65,0,1.2-.28,1.65-.83.46-.56.68-1.38.68-2.48,0-1.23-.22-2.11-.66-2.66-.44-.54-1-.81-1.69-.81s-1.23.27-1.68.8c-.45.53-.68,1.33-.68,2.4M182.04,187.1h-2.61v-1.57c-.44.61-.95,1.07-1.55,1.37-.59.31-1.19.46-1.8.46-1.23,0-2.28-.49-3.16-1.48-.87-.99-1.31-2.37-1.31-4.14s.42-3.19,1.28-4.13c.85-.94,1.93-1.41,3.23-1.41,1.19,0,2.23.5,3.1,1.49v-5.31h2.82v14.72ZM167.15,180.87c-.02-.82-.23-1.44-.63-1.87-.4-.43-.89-.64-1.46-.64-.61,0-1.12.23-1.52.68-.4.45-.6,1.06-.59,1.83h4.2ZM166.99,183.73l2.82.47c-.36,1.03-.93,1.82-1.71,2.36-.78.54-1.76.81-2.93.81-1.85,0-3.23-.61-4.12-1.82-.7-.97-1.06-2.2-1.06-3.68,0-1.77.46-3.16,1.38-4.16.92-1,2.09-1.5,3.5-1.5,1.58,0,2.83.52,3.75,1.57.92,1.05,1.35,2.66,1.31,4.82h-7.05c.02.84.25,1.49.68,1.95.43.47.97.7,1.62.7.44,0,.81-.12,1.11-.36.3-.24.53-.63.68-1.16ZM155.06,187.1v-10.67h2.82v10.67h-2.82ZM155.06,174.99v-2.61h2.82v2.61h-2.82ZM147.08,176.43h1.56v-.81c0-.9.1-1.57.29-2.01.19-.45.55-.81,1.06-1.08.52-.28,1.17-.42,1.96-.42s1.6.12,2.37.37l-.36,1.97c-.46-.12-.9-.19-1.33-.19s-.72.1-.9.29c-.18.19-.27.56-.27,1.11v.76h2.12v2.22h-2.12v8.45h-2.82v-8.45h-1.56v-2.22ZM142.54,187.1v-10.67h2.82v10.67h-2.82ZM142.54,174.99v-2.61h2.82v2.61h-2.82ZM140.57,176.43v2.24h-1.93v4.32c0,.88.02,1.39.05,1.53.04.14.12.26.25.36.13.09.29.14.48.14.26,0,.64-.09,1.14-.27l.24,2.19c-.65.28-1.39.42-2.22.42-.51,0-.96-.09-1.37-.26-.41-.17-.71-.39-.89-.67-.19-.27-.32-.64-.4-1.11-.06-.33-.09-.99-.09-2v-4.67h-1.3v-2.24h1.3v-2.12l2.82-1.67v3.78h1.93ZM130.39,187.1h-2.82v-10.67h2.61v1.51c.45-.72.85-1.19,1.21-1.41.36-.22.77-.33,1.22-.33.64,0,1.26.18,1.86.53l-.87,2.46c-.48-.31-.92-.46-1.33-.46s-.73.11-1.01.33c-.27.22-.49.61-.65,1.18-.16.57-.24,1.76-.24,3.57v3.29ZM122.59,180.87c-.02-.82-.23-1.44-.63-1.87-.4-.43-.89-.64-1.46-.64-.61,0-1.12.23-1.52.68-.4.45-.6,1.06-.59,1.83h4.21ZM122.43,183.73l2.82.47c-.36,1.03-.93,1.82-1.71,2.36-.78.54-1.76.81-2.93.81-1.85,0-3.23-.61-4.12-1.82-.7-.97-1.06-2.2-1.06-3.68,0-1.77.46-3.16,1.38-4.16.92-1,2.09-1.5,3.5-1.5,1.58,0,2.83.52,3.75,1.57.91,1.05,1.35,2.66,1.31,4.82h-7.05c.02.84.25,1.49.68,1.95.43.47.97.7,1.62.7.44,0,.81-.12,1.11-.36.3-.24.53-.63.68-1.16ZM110.85,181.67l2.88.88c-.44,1.62-1.18,2.82-2.21,3.61-1.03.78-2.33,1.18-3.91,1.18-1.96,0-3.56-.67-4.83-2.01-1.26-1.34-1.89-3.16-1.89-5.48,0-2.45.63-4.36,1.9-5.71,1.26-1.36,2.93-2.04,4.99-2.04,1.8,0,3.27.53,4.39,1.6.67.63,1.17,1.54,1.51,2.72l-2.94.7c-.18-.76-.54-1.36-1.09-1.81-.56-.44-1.23-.66-2.02-.66-1.09,0-1.98.39-2.66,1.18-.68.78-1.02,2.05-1.02,3.8,0,1.86.34,3.18,1,3.97.67.79,1.54,1.19,2.61,1.19.79,0,1.47-.25,2.04-.75.57-.5.98-1.29,1.23-2.37ZM188.7,159.64c0,.78.2,1.4.6,1.83.4.44.89.66,1.48.66s1.06-.21,1.44-.63c.38-.42.57-1.03.57-1.83,0-.7-.19-1.25-.58-1.68-.39-.42-.88-.63-1.47-.63-.69,0-1.2.24-1.54.72-.34.48-.5,1-.5,1.56ZM188.97,153.33c0,.56.16,1,.47,1.32.32.32.74.47,1.26.47s.96-.16,1.28-.48c.32-.32.48-.76.48-1.32,0-.53-.16-.96-.47-1.27-.32-.32-.74-.48-1.25-.48s-.97.16-1.29.48c-.32.32-.48.75-.48,1.28ZM188.38,156.17c-.73-.31-1.26-.73-1.59-1.27-.33-.54-.5-1.13-.5-1.77,0-1.1.38-2.01,1.15-2.72.76-.72,1.85-1.08,3.26-1.08s2.48.36,3.25,1.08c.77.72,1.16,1.62,1.16,2.72,0,.68-.18,1.29-.53,1.82-.35.53-.85.94-1.5,1.22.82.33,1.44.81,1.87,1.44.42.63.64,1.36.64,2.19,0,1.36-.43,2.47-1.3,3.32-.86.85-2.01,1.28-3.45,1.28-1.34,0-2.45-.35-3.34-1.06-1.05-.83-1.57-1.97-1.57-3.42,0-.8.2-1.53.59-2.2.39-.67,1.01-1.18,1.86-1.55ZM181.73,164.13h-2.82v-10.66c-1.03.97-2.24,1.68-3.64,2.15v-2.57c.74-.24,1.54-.7,2.4-1.37.86-.67,1.45-1.46,1.78-2.35h2.29v14.81ZM167.85,151.67c-.34,0-.64.11-.9.33-.26.22-.47.61-.61,1.17-.19.73-.29,1.96-.29,3.69s.09,2.92.26,3.57c.17.65.39,1.08.65,1.3.26.22.56.32.89.32s.64-.11.9-.33c.26-.22.47-.61.61-1.17.19-.72.29-1.95.29-3.69s-.09-2.92-.26-3.57c-.17-.65-.39-1.08-.65-1.3-.26-.22-.56-.33-.89-.33ZM167.85,149.32c1.43,0,2.54.51,3.34,1.53.96,1.21,1.44,3.21,1.44,6.01s-.48,4.8-1.45,6.02c-.8,1.01-1.91,1.51-3.33,1.51s-2.59-.55-3.47-1.66c-.88-1.1-1.32-3.07-1.32-5.9s.48-4.78,1.45-6c.8-1.01,1.91-1.51,3.33-1.51ZM161.18,161.52v2.61h-9.89c.11-.99.43-1.93.96-2.82.53-.89,1.59-2.07,3.17-3.54,1.27-1.19,2.05-1.99,2.34-2.41.39-.58.58-1.16.58-1.73,0-.63-.17-1.11-.51-1.45-.34-.34-.8-.51-1.39-.51s-1.06.18-1.41.53c-.35.35-.54.94-.6,1.77l-2.82-.28c.17-1.56.69-2.67,1.58-3.35.88-.68,1.99-1.01,3.31-1.01,1.45,0,2.59.39,3.43,1.18.83.78,1.24,1.76,1.24,2.93,0,.66-.12,1.3-.36,1.9-.24.6-.61,1.23-1.13,1.89-.34.44-.96,1.07-1.85,1.89-.89.82-1.46,1.36-1.7,1.63-.24.27-.43.53-.58.78h5.61ZM145.94,164.13v-2.82h2.82v2.82h-2.82ZM145.94,156.27v-2.82h2.82v2.82h-2.82ZM140.57,164.13h-2.82v-10.66c-1.03.97-2.24,1.68-3.64,2.15v-2.57c.74-.24,1.54-.7,2.4-1.37.86-.67,1.45-1.46,1.78-2.35h2.29v14.81ZM126.7,151.67c-.34,0-.64.11-.9.33-.26.22-.47.61-.61,1.17-.19.73-.29,1.96-.29,3.69s.09,2.92.26,3.57c.17.65.39,1.08.65,1.3.26.22.56.32.89.32s.64-.11.9-.33c.26-.22.47-.61.61-1.17.19-.72.29-1.95.29-3.69s-.09-2.92-.26-3.57c-.17-.65-.39-1.08-.65-1.3-.26-.22-.56-.33-.89-.33ZM126.7,149.32c1.43,0,2.54.51,3.34,1.53.96,1.21,1.44,3.21,1.44,6.01s-.48,4.8-1.45,6.02c-.8,1.01-1.91,1.51-3.33,1.51s-2.59-.55-3.46-1.66c-.88-1.1-1.32-3.07-1.32-5.9s.48-4.78,1.45-6c.8-1.01,1.91-1.51,3.33-1.51ZM115.26,151.67c-.34,0-.64.11-.9.33-.26.22-.47.61-.61,1.17-.19.73-.29,1.96-.29,3.69s.09,2.92.26,3.57c.17.65.39,1.08.65,1.3.26.22.56.32.89.32s.64-.11.9-.33c.26-.22.47-.61.61-1.17.19-.72.29-1.95.29-3.69s-.09-2.92-.26-3.57c-.17-.65-.39-1.08-.65-1.3-.26-.22-.56-.33-.89-.33ZM115.26,149.32c1.43,0,2.54.51,3.35,1.53.96,1.21,1.44,3.21,1.44,6.01s-.48,4.8-1.45,6.02c-.8,1.01-1.91,1.51-3.33,1.51s-2.59-.55-3.46-1.66c-.88-1.1-1.32-3.07-1.32-5.9s.48-4.78,1.45-6c.8-1.01,1.91-1.51,3.33-1.51ZM106.26,164.13h-2.82v-10.66c-1.03.97-2.24,1.68-3.64,2.15v-2.57c.74-.24,1.54-.7,2.4-1.37.86-.67,1.45-1.46,1.78-2.35h2.29v14.81ZM97.15,161.52v2.61h-9.89c.11-.99.43-1.93.96-2.82.53-.89,1.59-2.07,3.17-3.54,1.27-1.19,2.05-1.99,2.34-2.41.39-.58.58-1.16.58-1.73,0-.63-.17-1.11-.51-1.45-.34-.34-.8-.51-1.39-.51s-1.06.18-1.41.53c-.35.35-.54.94-.6,1.77l-2.82-.28c.17-1.56.69-2.67,1.58-3.35.88-.68,1.99-1.01,3.31-1.01,1.45,0,2.59.39,3.43,1.18.83.78,1.24,1.76,1.24,2.93,0,.66-.12,1.3-.36,1.9-.24.6-.61,1.23-1.13,1.89-.34.44-.96,1.07-1.85,1.89-.89.82-1.46,1.36-1.7,1.63-.24.27-.43.53-.58.78h5.61Z"/>
  <g class="cls-7">
    <ellipse class="cls-5" cx="140.41" cy="83.57" rx="34.09" ry="44.33"/>
    <path class="cls-5" d="M140.41,41.04c9.85,0,17.83,19.04,17.83,42.53s-7.98,42.53-17.83,42.53-17.83-19.04-17.83-42.53,7.98-42.53,17.83-42.53Z"/>
    <path class="cls-1" d="M140.41,123.63c11.06,0,20.02,8.96,20.02,20.02s-8.96,20.02-20.02,20.02-20.02-8.96-20.02-20.02,8.96-20.02,20.02-20.02Z"/>
    <path class="cls-5" d="M140.41,123.63c11.06,0,20.02,8.96,20.02,20.02s-8.96,20.02-20.02,20.02-20.02-8.96-20.02-20.02,8.96-20.02,20.02-20.02Z"/>
    <path class="cls-1" d="M140.41,43.51c11.06,0,20.02-8.96,20.02-20.02s-8.96-20.02-20.02-20.02-20.02,8.96-20.02,20.02,8.96,20.02,20.02,20.02Z"/>
    <path class="cls-5" d="M140.41,43.51c11.06,0,20.02-8.96,20.02-20.02s-8.96-20.02-20.02-20.02-20.02,8.96-20.02,20.02,8.96,20.02,20.02,20.02Z"/>
    <line class="cls-5" x1="140.41" y1="43.51" x2="140.41" y2="123.63"/>
    <ellipse class="cls-5" cx="140.41" cy="143.75" rx="42.22" ry="32.66"/>
    <path class="cls-5" d="M140.41-9.06c23.32,0,42.22,14.62,42.22,32.66s-18.9,32.66-42.22,32.66-42.22-14.62-42.22-32.66,18.9-32.66,42.22-32.66Z"/>
  </g>
  <g>
    <path class="cls-4" d="M140.41,144.46c-33.57,0-60.89-27.31-60.89-60.89s27.31-60.88,60.89-60.88,60.89,27.31,60.89,60.88-27.31,60.89-60.89,60.89ZM140.41,51.01c-17.96,0-32.57,14.61-32.57,32.56s14.61,32.57,32.57,32.57,32.57-14.61,32.57-32.57-14.61-32.56-32.57-32.56Z"/>
    <rect class="cls-4" x="105.05" y="45.7" width="71.67" height="75.96"/>
  </g>
  <rect class="cls-3" x="80.38" y="59.29" width="122.48" height="48.55"/>
  <path class="cls-2" d="M170.14,80.16c-.12,2.56-.1,5.11.06,7.67.15,2.4.47,4.27,2.58,5.84,2.25,1.68,6.02,1.96,8.41.4,2.73-1.78,2.83-3.75,2.89-6.6.05-2.66.06-5.43,0-8.3-.04-2.39-.03-4.18-2.3-5.7-2.56-1.72-6.98-1.79-9.42.18-2.09,1.69-2.11,4.08-2.22,6.51M164.25,65.22c-4.73,2.48-7.36,6.17-8.62,10.66-.99,4.84-1.13,9.01-.55,12.62,1.25,7.79,5.18,12.27,12.49,14.95,2.74,1.01,5.68,1.53,8.84,1.55,7.48-.16,13.49-1.89,17.49-5.72,6.11-5.85,7.33-18.99,3.67-26.4-2.65-5.36-7.28-8.11-12.85-9.63-6.93-1.9-14.03-1.41-20.47,1.97ZM122.58,100.6l.22,3.63h-9.12v-15.29h8.18c1.76,2.76,4.11,4.71,7.09,5.78,2.18.78,4.7,1.15,7.56.92,1.84-.15,3.84-.83,3.99-1.87.3-2.02-4.83-2.8-6.22-3.2-5.44-1.54-16.21-4.14-19.2-9.08-1.02-1.69-1.62-3.88-1.59-6.79-.16-4.31,2.19-8.18,6.4-10.43,2.52-1.35,5.71-2.11,9.43-2.04,2.48.01,4.88.33,7.2.99,2.24.63,4.4,1.57,6.47,2.83l.11.16-.11-2.9h9.12v14.13h-8.57c-3.11-4.74-8.93-6.07-14.24-6.43-3.96.07-4.21,3.17-1.34,4.34,2.3.94,6.55,1.6,9.24,2.38,5.07,1.47,10.31,3.05,13.73,7.37,3.84,4.85,2.65,12.35-1.93,16.23-4.63,3.91-13.66,4.4-19.35,2.64-2.41-.74-4.68-1.9-6.83-3.37h-.22ZM84.19,94.26h6.57v-21.73h-6.57v-9.96h26.9v9.96h-6.57v21.73h6.57v9.96h-26.9v-9.96Z"/>
</svg>