<?xml version="1.0" encoding="UTF-8"?>
<svg id="Layer_1" data-name="Layer 1" xmlns="http://www.w3.org/2000/svg" xmlns:xlink="http://www.w3.org/1999/xlink" viewBox="0 0 282.38 210.05">
  <defs>
    <style>
      .cls-1, .cls-2 {
        fill: #fff;
      }

      .cls-1, .cls-3 {
        fill-rule: evenodd;
      }

      .cls-4, .cls-3 {
        fill: #477f5e;
      }

      .cls-5 {
        stroke: #477f5e;
        stroke-miterlimit: 22.93;
        stroke-width: 8px;
      }

      .cls-5, .cls-6 {
        fill: none;
      }

      .cls-6 {
        clip-rule: evenodd;
      }

      .cls-7 {
        clip-path: url(#clippath);
      }
    </style>
    <clipPath id="clippath">
      <path class="cls-6" d="M140.36,31.81c27.71,0,50.17,22.46,50.17,50.17s-22.46,50.17-50.17,50.17-50.17-22.46-50.17-50.17,22.46-50.17,50.17-50.17"/>
    </clipPath>
  </defs>
  <rect class="cls-4" x="109.32" y="45.64" width="69.16" height="78.07"/>
  <path class="cls-4" d="M176.97,187.2c0,1.23.17,2.11.5,2.66.49.79,1.17,1.19,2.05,1.19.7,0,1.29-.3,1.77-.89.49-.6.73-1.48.73-2.67,0-1.32-.24-2.27-.71-2.85-.47-.58-1.08-.87-1.82-.87s-1.32.29-1.8.86c-.48.57-.73,1.43-.73,2.57M185.05,193.15h-2.8v-1.68c-.47.65-1.02,1.14-1.66,1.48-.64.33-1.28.49-1.93.49-1.32,0-2.45-.53-3.39-1.59-.94-1.06-1.41-2.54-1.41-4.45s.46-3.42,1.37-4.43c.92-1.01,2.07-1.52,3.47-1.52,1.28,0,2.39.53,3.33,1.6v-5.7h3.02v15.81ZM169.06,186.46c-.02-.88-.25-1.55-.68-2.01-.43-.46-.95-.69-1.57-.69-.66,0-1.2.24-1.63.72-.43.48-.64,1.14-.63,1.97h4.51ZM168.89,189.53l3.02.51c-.39,1.11-1,1.95-1.84,2.53-.84.58-1.89.87-3.14.87-1.99,0-3.47-.65-4.42-1.95-.75-1.05-1.13-2.36-1.13-3.96,0-1.9.5-3.39,1.49-4.46.99-1.08,2.24-1.62,3.76-1.62,1.7,0,3.04.56,4.03,1.69.98,1.13,1.45,2.85,1.41,5.18h-7.57c.02.9.26,1.6.73,2.1.46.5,1.04.75,1.74.75.47,0,.87-.13,1.19-.39.32-.26.57-.67.73-1.25ZM156.08,193.15v-11.46h3.02v11.46h-3.02ZM156.08,180.15v-2.8h3.02v2.8h-3.02ZM147.52,181.7h1.68v-.86c0-.96.1-1.69.31-2.16.21-.48.59-.86,1.14-1.16.56-.3,1.26-.45,2.1-.45s1.71.13,2.55.4l-.39,2.12c-.49-.13-.97-.2-1.42-.2s-.77.1-.96.31c-.19.21-.29.6-.29,1.19v.82h2.27v2.38h-2.27v9.07h-3.02v-9.07h-1.68v-2.38ZM142.64,193.15v-11.46h3.02v11.46h-3.02ZM142.64,180.15v-2.8h3.02v2.8h-3.02ZM140.52,181.7v2.41h-2.08v4.64c0,.94.02,1.49.06,1.64.04.15.13.28.27.39.14.1.31.15.51.15.28,0,.69-.1,1.22-.29l.25,2.36c-.7.3-1.5.45-2.39.45-.54,0-1.03-.09-1.47-.28-.44-.18-.76-.42-.96-.71-.21-.29-.35-.69-.43-1.19-.06-.35-.1-1.07-.1-2.14v-5.02h-1.39v-2.41h1.39v-2.27l3.02-1.79v4.06h2.08ZM129.59,193.15h-3.02v-11.46h2.8v1.63c.48-.77.92-1.27,1.3-1.51.39-.24.82-.36,1.31-.36.69,0,1.36.19,2,.57l-.94,2.64c-.51-.33-.99-.5-1.42-.5s-.79.12-1.08.35c-.29.24-.53.66-.7,1.27-.17.61-.25,1.89-.25,3.84v3.53ZM121.22,186.46c-.02-.88-.25-1.55-.68-2.01-.43-.46-.95-.69-1.57-.69-.66,0-1.2.24-1.63.72-.43.48-.64,1.14-.63,1.97h4.52ZM121.04,189.53l3.02.51c-.39,1.11-1,1.95-1.84,2.53-.84.58-1.89.87-3.14.87-1.99,0-3.47-.65-4.42-1.95-.75-1.05-1.13-2.36-1.13-3.96,0-1.9.5-3.39,1.49-4.46.99-1.08,2.24-1.62,3.76-1.62,1.7,0,3.04.56,4.03,1.69.98,1.13,1.45,2.85,1.41,5.18h-7.57c.02.9.26,1.6.73,2.1.46.5,1.05.75,1.74.75.47,0,.87-.13,1.19-.39.32-.26.57-.67.73-1.25ZM108.61,187.33l3.09.95c-.47,1.74-1.27,3.03-2.37,3.88-1.1.84-2.5,1.27-4.2,1.27-2.1,0-3.83-.72-5.18-2.15-1.35-1.44-2.03-3.4-2.03-5.89,0-2.63.68-4.68,2.04-6.13,1.36-1.46,3.15-2.19,5.36-2.19,1.94,0,3.51.57,4.71,1.72.72.68,1.26,1.65,1.62,2.92l-3.16.75c-.19-.82-.58-1.46-1.17-1.94-.6-.47-1.32-.71-2.16-.71-1.17,0-2.13.42-2.86,1.26-.73.84-1.1,2.2-1.1,4.08,0,1.99.36,3.42,1.08,4.27.72.85,1.66,1.27,2.81,1.27.85,0,1.58-.27,2.19-.81.61-.54,1.05-1.39,1.32-2.55ZM192.2,163.67c0,.84.21,1.5.64,1.97.43.47.96.71,1.59.71s1.14-.23,1.55-.68c.41-.45.61-1.11.61-1.96,0-.75-.21-1.35-.62-1.8-.42-.45-.94-.68-1.58-.68-.74,0-1.29.26-1.65.77-.36.52-.54,1.07-.54,1.67ZM192.49,156.89c0,.6.17,1.08.51,1.42.34.34.79.51,1.36.51s1.03-.17,1.37-.52c.34-.34.52-.82.52-1.42,0-.57-.17-1.03-.51-1.37-.34-.34-.79-.52-1.35-.52s-1.04.17-1.38.52c-.34.35-.52.81-.52,1.38ZM191.86,159.94c-.78-.33-1.35-.78-1.7-1.37-.36-.58-.53-1.21-.53-1.9,0-1.18.41-2.16,1.23-2.93.82-.77,1.99-1.16,3.5-1.16s2.66.39,3.49,1.16c.83.77,1.24,1.74,1.24,2.93,0,.73-.19,1.38-.57,1.96-.38.57-.92,1.01-1.61,1.31.88.35,1.55.87,2.01,1.55.46.68.68,1.46.68,2.35,0,1.46-.46,2.65-1.39,3.57-.93.92-2.16,1.37-3.71,1.37-1.44,0-2.63-.38-3.58-1.14-1.13-.89-1.69-2.12-1.69-3.68,0-.86.21-1.64.64-2.36.42-.72,1.09-1.27,2-1.66ZM184.71,168.49h-3.02v-11.44c-1.1,1.04-2.41,1.81-3.91,2.3v-2.76c.79-.26,1.65-.75,2.57-1.47.93-.72,1.56-1.56,1.91-2.52h2.45v15.9ZM169.82,155.11c-.36,0-.68.12-.96.35-.28.23-.5.65-.66,1.26-.21.78-.31,2.11-.31,3.97s.09,3.14.28,3.83c.18.7.42,1.16.7,1.39.28.23.6.35.96.35s.68-.12.97-.35c.28-.23.5-.65.65-1.26.21-.78.31-2.1.31-3.96s-.09-3.14-.28-3.83c-.18-.7-.42-1.16-.7-1.39-.28-.24-.6-.35-.96-.35ZM169.82,152.59c1.53,0,2.73.55,3.59,1.64,1.03,1.3,1.54,3.45,1.54,6.45s-.52,5.16-1.55,6.47c-.86,1.08-2.05,1.62-3.58,1.62s-2.78-.59-3.72-1.78c-.94-1.19-1.41-3.3-1.41-6.34s.52-5.13,1.55-6.44c.86-1.08,2.05-1.62,3.58-1.62ZM162.65,165.68v2.8h-10.62c.11-1.07.46-2.08,1.03-3.03.57-.95,1.71-2.22,3.4-3.8,1.37-1.27,2.2-2.14,2.51-2.59.42-.63.63-1.24.63-1.86,0-.68-.18-1.2-.54-1.56-.36-.36-.86-.54-1.5-.54s-1.13.19-1.51.57c-.37.38-.59,1.01-.64,1.9l-3.02-.3c.18-1.67.74-2.87,1.69-3.6.95-.72,2.13-1.09,3.56-1.09,1.56,0,2.79.42,3.68,1.27.89.84,1.34,1.89,1.34,3.15,0,.71-.13,1.39-.38,2.04-.25.64-.66,1.32-1.21,2.02-.36.47-1.03,1.14-1.99,2.02-.96.88-1.57,1.46-1.82,1.75-.26.29-.46.57-.62.84h6.03ZM146.29,168.49v-3.02h3.02v3.02h-3.02ZM146.29,160.05v-3.02h3.02v3.02h-3.02ZM140.52,168.49h-3.02v-11.44c-1.1,1.04-2.41,1.81-3.91,2.3v-2.76c.79-.26,1.65-.75,2.57-1.47.93-.72,1.56-1.56,1.91-2.52h2.45v15.9ZM125.63,155.11c-.36,0-.68.12-.96.35-.28.23-.5.65-.66,1.26-.21.78-.31,2.11-.31,3.97s.09,3.14.28,3.83c.18.7.42,1.16.7,1.39.28.23.6.35.96.35s.68-.12.97-.35c.28-.23.5-.65.65-1.26.21-.78.31-2.1.31-3.96s-.09-3.14-.28-3.83c-.18-.7-.42-1.16-.7-1.39-.28-.24-.6-.35-.96-.35ZM125.63,152.59c1.53,0,2.73.55,3.59,1.64,1.03,1.3,1.54,3.45,1.54,6.45s-.52,5.16-1.55,6.47c-.86,1.08-2.05,1.62-3.58,1.62s-2.78-.59-3.72-1.78c-.94-1.19-1.41-3.3-1.41-6.34s.52-5.13,1.55-6.44c.86-1.08,2.05-1.62,3.58-1.62ZM113.35,155.11c-.36,0-.68.12-.96.35-.28.23-.5.65-.66,1.26-.21.78-.31,2.11-.31,3.97s.09,3.14.28,3.83c.18.7.42,1.16.7,1.39.28.23.6.35.96.35s.68-.12.97-.35c.28-.23.5-.65.66-1.26.21-.78.31-2.1.31-3.96s-.09-3.14-.28-3.83c-.18-.7-.42-1.16-.7-1.39-.28-.24-.6-.35-.96-.35ZM113.35,152.59c1.53,0,2.73.55,3.59,1.64,1.03,1.3,1.54,3.45,1.54,6.45s-.52,5.16-1.55,6.47c-.86,1.08-2.05,1.62-3.58,1.62s-2.78-.59-3.72-1.78c-.94-1.19-1.41-3.3-1.41-6.34s.52-5.13,1.55-6.44c.86-1.08,2.05-1.62,3.58-1.62ZM101.07,155.11c-.36,0-.68.12-.96.35-.28.23-.5.65-.66,1.26-.21.78-.31,2.11-.31,3.97s.09,3.14.28,3.83c.18.7.42,1.16.7,1.39.28.23.6.35.96.35s.68-.12.97-.35c.28-.23.5-.65.66-1.26.21-.78.31-2.1.31-3.96s-.09-3.14-.28-3.83c-.18-.7-.42-1.16-.7-1.39-.28-.24-.6-.35-.96-.35ZM101.07,152.59c1.53,0,2.73.55,3.59,1.64,1.03,1.3,1.54,3.45,1.54,6.45s-.52,5.16-1.55,6.47c-.86,1.08-2.05,1.62-3.58,1.62s-2.78-.59-3.72-1.78c-.94-1.19-1.41-3.3-1.41-6.34s.52-5.13,1.55-6.44c.86-1.08,2.05-1.62,3.58-1.62ZM83.7,164.43l3.02-.31c.09.68.34,1.23.77,1.63.43.4.92.6,1.47.6.63,0,1.17-.26,1.61-.78.44-.52.66-1.3.66-2.34,0-.98-.22-1.71-.65-2.2-.43-.49-1-.73-1.7-.73-.87,0-1.66.38-2.35,1.15l-2.45-.35,1.55-8.21h8.01v2.83h-5.72l-.48,2.69c.67-.33,1.37-.5,2.07-.5,1.35,0,2.49.49,3.42,1.47.94.98,1.41,2.25,1.41,3.82,0,1.31-.38,2.47-1.13,3.5-1.03,1.4-2.46,2.1-4.28,2.1-1.46,0-2.65-.39-3.57-1.18-.92-.79-1.47-1.84-1.65-3.17Z"/>
  <g class="cls-7">
    <ellipse class="cls-5" cx="140.36" cy="81.99" rx="36.6" ry="47.6"/>
    <path class="cls-5" d="M140.36,36.32c10.58,0,19.15,20.45,19.15,45.67s-8.57,45.67-19.15,45.67-19.15-20.45-19.15-45.67,8.57-45.67,19.15-45.67Z"/>
    <path class="cls-1" d="M140.36,125c11.87,0,21.49,9.62,21.49,21.49s-9.62,21.49-21.49,21.49-21.49-9.62-21.49-21.49,9.62-21.49,21.49-21.49Z"/>
    <path class="cls-5" d="M140.36,125c11.87,0,21.49,9.62,21.49,21.49s-9.62,21.49-21.49,21.49-21.49-9.62-21.49-21.49,9.62-21.49,21.49-21.49Z"/>
    <path class="cls-1" d="M140.36,38.97c11.87,0,21.49-9.62,21.49-21.49s-9.62-21.49-21.49-21.49-21.49,9.62-21.49,21.49,9.62,21.49,21.49,21.49Z"/>
    <path class="cls-5" d="M140.36,38.97c11.87,0,21.49-9.62,21.49-21.49s-9.62-21.49-21.49-21.49-21.49,9.62-21.49,21.49,9.62,21.49,21.49,21.49Z"/>
    <line class="cls-5" x1="140.36" y1="38.97" x2="140.36" y2="125"/>
    <ellipse class="cls-5" cx="140.36" cy="146.6" rx="45.33" ry="35.07"/>
    <ellipse class="cls-5" cx="140.36" cy="17.59" rx="45.33" ry="35.06"/>
  </g>
  <path class="cls-4" d="M140.35,147.36c-36.05,0-65.37-29.33-65.37-65.38S104.31,16.61,140.35,16.61s65.38,29.33,65.38,65.37-29.33,65.38-65.38,65.38ZM140.35,47.02c-19.28,0-34.97,15.69-34.97,34.97s15.69,34.97,34.97,34.97,34.97-15.69,34.97-34.97-15.69-34.97-34.97-34.97Z"/>
  <rect class="cls-2" x="75.89" y="55.92" width="131.51" height="52.14"/>
  <path class="cls-3" d="M172.27,78.32c-.13,2.74-.11,5.49.07,8.24.16,2.57.5,4.59,2.77,6.27,2.42,1.8,6.46,2.11,9.03.43,2.93-1.91,3.04-4.03,3.1-7.08.06-2.86.06-5.83,0-8.92-.05-2.56-.04-4.49-2.47-6.13-2.75-1.84-7.5-1.92-10.12.2-2.24,1.81-2.26,4.38-2.39,6.99M165.95,62.28c-5.07,2.66-7.9,6.63-9.26,11.45-1.06,5.19-1.22,9.67-.59,13.55,1.34,8.37,5.56,13.17,13.41,16.06,2.94,1.08,6.1,1.64,9.49,1.66,8.03-.18,14.48-2.02,18.78-6.14,6.56-6.28,7.87-20.39,3.94-28.35-2.84-5.76-7.81-8.7-13.79-10.35-7.44-2.04-15.07-1.51-21.98,2.12ZM121.21,100.27l.24,3.89h-9.8v-16.42h8.79c1.89,2.97,4.41,5.06,7.61,6.21,2.34.84,5.04,1.23,8.12.99,1.98-.16,4.12-.89,4.28-2.01.32-2.17-5.18-3.01-6.68-3.43-5.84-1.65-17.41-4.44-20.62-9.75-1.1-1.82-1.74-4.16-1.71-7.29-.17-4.63,2.35-8.79,6.87-11.2,2.71-1.45,6.13-2.27,10.12-2.19,2.66.01,5.24.36,7.73,1.06,2.4.68,4.72,1.68,6.95,3.04l.12.18-.12-3.11h9.8v15.17h-9.2c-3.34-5.09-9.59-6.52-15.29-6.9-4.25.08-4.52,3.4-1.44,4.66,2.47,1,7.03,1.72,9.92,2.55,5.44,1.58,11.07,3.28,14.74,7.92,4.12,5.21,2.85,13.27-2.07,17.43-4.97,4.2-14.67,4.72-20.78,2.84-2.59-.8-5.02-2.03-7.34-3.62h-.24ZM79.98,93.47h7.06v-23.33h-7.06v-10.7h28.89v10.7h-7.06v23.33h7.06v10.7h-28.89v-10.7Z"/>
</svg>