<?xml version="1.0" encoding="UTF-8"?>
<svg id="Layer_1" data-name="Layer 1" xmlns="http://www.w3.org/2000/svg" xmlns:xlink="http://www.w3.org/1999/xlink" viewBox="0 0 282.38 210.05">
  <defs>
    <style>
      .cls-1, .cls-2 {
        fill: #fff;
      }

      .cls-1, .cls-3 {
        fill-rule: evenodd;
      }

      .cls-4 {
        stroke: #003b51;
        stroke-miterlimit: 22.93;
        stroke-width: 8px;
      }

      .cls-4, .cls-5 {
        fill: none;
      }

      .cls-5 {
        clip-rule: evenodd;
      }

      .cls-6, .cls-3 {
        fill: #00518e;
      }

      .cls-7 {
        clip-path: url(#clippath);
      }
    </style>
    <clipPath id="clippath">
      <path class="cls-5" d="M140.34,30.74c28.1,0,50.88,22.78,50.88,50.88s-22.78,50.88-50.88,50.88-50.88-22.78-50.88-50.88,22.78-50.88,50.88-50.88"/>
    </clipPath>
  </defs>
  <path class="cls-6" d="M174.8,188.4c0,1.24.16,2.14.47,2.7.46.81,1.1,1.21,1.92,1.21.65,0,1.21-.3,1.67-.91.46-.6.69-1.5.69-2.71,0-1.34-.22-2.3-.67-2.89-.45-.59-1.01-.88-1.71-.88s-1.24.29-1.69.87c-.45.58-.68,1.45-.68,2.61M182.39,194.44h-2.63v-1.71c-.44.66-.96,1.16-1.56,1.5-.6.33-1.2.5-1.81.5-1.24,0-2.3-.54-3.19-1.62-.88-1.08-1.32-2.58-1.32-4.51s.43-3.47,1.29-4.5c.86-1.03,1.95-1.54,3.26-1.54,1.2,0,2.25.54,3.12,1.62v-5.79h2.84v16.04ZM167.37,187.65c-.02-.89-.23-1.57-.64-2.03-.4-.47-.9-.7-1.48-.7-.62,0-1.13.25-1.53.74-.4.49-.6,1.16-.59,2h4.24ZM167.21,190.76l2.84.52c-.36,1.12-.94,1.98-1.72,2.57-.79.59-1.77.88-2.95.88-1.87,0-3.26-.66-4.15-1.98-.71-1.06-1.06-2.4-1.06-4.01,0-1.93.47-3.44,1.4-4.53.93-1.09,2.11-1.64,3.53-1.64,1.6,0,2.86.57,3.78,1.71.92,1.14,1.37,2.89,1.32,5.25h-7.11c.02.91.25,1.62.69,2.13.44.51.98.76,1.63.76.45,0,.82-.13,1.12-.39.3-.26.53-.68.69-1.27ZM155.18,194.44v-11.63h2.84v11.63h-2.84ZM155.18,181.24v-2.85h2.84v2.85h-2.84ZM147.13,182.81h1.58v-.88c0-.98.1-1.71.29-2.19.19-.49.55-.88,1.07-1.18.52-.3,1.18-.46,1.97-.46s1.61.13,2.39.4l-.36,2.15c-.46-.13-.91-.2-1.34-.2s-.72.1-.91.31c-.18.21-.28.61-.28,1.21v.83h2.14v2.42h-2.14v9.21h-2.84v-9.21h-1.58v-2.42ZM142.55,194.44v-11.63h2.84v11.63h-2.84ZM142.55,181.24v-2.85h2.84v2.85h-2.84ZM140.56,182.81v2.44h-1.95v4.71c0,.96.02,1.51.06,1.67.04.16.12.29.26.39.13.1.29.15.48.15.27,0,.65-.1,1.15-.29l.24,2.39c-.66.31-1.41.46-2.24.46-.51,0-.97-.09-1.38-.28-.41-.19-.71-.43-.9-.72-.19-.3-.33-.7-.4-1.21-.06-.36-.09-1.08-.09-2.18v-5.09h-1.31v-2.44h1.31v-2.31l2.84-1.81v4.12h1.95ZM130.29,194.44h-2.84v-11.63h2.63v1.65c.45-.78.86-1.29,1.22-1.53.36-.24.77-.36,1.23-.36.65,0,1.28.19,1.88.58l-.88,2.68c-.48-.34-.93-.5-1.34-.5s-.74.12-1.02.35c-.28.24-.49.66-.65,1.28-.16.62-.24,1.92-.24,3.89v3.58ZM122.43,187.65c-.02-.89-.23-1.57-.64-2.03-.4-.47-.9-.7-1.48-.7-.62,0-1.13.25-1.53.74-.4.49-.6,1.16-.59,2h4.24ZM122.26,190.76l2.84.52c-.36,1.12-.94,1.98-1.72,2.57-.79.59-1.77.88-2.95.88-1.87,0-3.26-.66-4.15-1.98-.71-1.06-1.06-2.4-1.06-4.01,0-1.93.47-3.44,1.4-4.53.93-1.09,2.11-1.64,3.53-1.64,1.6,0,2.86.57,3.79,1.71.92,1.14,1.37,2.89,1.32,5.25h-7.11c.02.91.25,1.62.69,2.13.44.51.98.76,1.63.76.45,0,.82-.13,1.12-.39.3-.26.53-.68.69-1.27ZM110.58,188.52l2.9.96c-.45,1.77-1.19,3.08-2.23,3.94-1.04.86-2.35,1.28-3.94,1.28-1.97,0-3.59-.73-4.87-2.18-1.27-1.46-1.9-3.45-1.9-5.97,0-2.67.64-4.75,1.92-6.22,1.28-1.48,2.96-2.22,5.04-2.22,1.82,0,3.29.58,4.43,1.74.68.69,1.18,1.67,1.52,2.96l-2.97.76c-.18-.83-.54-1.49-1.1-1.97-.56-.48-1.24-.72-2.03-.72-1.1,0-2,.43-2.68,1.28-.69.85-1.03,2.23-1.03,4.15,0,2.02.34,3.47,1.01,4.33.68.86,1.56,1.29,2.64,1.29.8,0,1.49-.27,2.06-.82.57-.55.99-1.41,1.24-2.58ZM189.11,164.52c0,.86.2,1.52.6,2,.4.48.9.72,1.5.72s1.07-.23,1.46-.69c.38-.46.57-1.12.57-1.99,0-.76-.19-1.37-.58-1.83-.39-.46-.88-.69-1.48-.69-.69,0-1.21.26-1.55.78-.34.52-.51,1.09-.51,1.7ZM189.38,157.64c0,.61.16,1.09.48,1.44.32.34.75.52,1.28.52s.97-.18,1.29-.52c.32-.35.48-.83.48-1.44,0-.58-.16-1.04-.48-1.39-.32-.35-.74-.52-1.27-.52s-.98.18-1.3.53c-.32.35-.48.82-.48,1.4ZM188.78,160.73c-.73-.34-1.27-.8-1.6-1.39-.34-.59-.5-1.23-.5-1.93,0-1.2.39-2.19,1.16-2.97.77-.78,1.87-1.17,3.29-1.17s2.5.39,3.28,1.17c.78.78,1.17,1.77,1.17,2.97,0,.74-.18,1.4-.54,1.99-.36.58-.86,1.02-1.51,1.33.83.36,1.45.88,1.88,1.57.43.69.64,1.48.64,2.38,0,1.49-.44,2.69-1.31,3.62-.87.93-2.03,1.39-3.48,1.39-1.35,0-2.47-.38-3.37-1.15-1.06-.9-1.59-2.15-1.59-3.73,0-.87.2-1.67.6-2.4.4-.73,1.02-1.29,1.88-1.68ZM182.07,169.41h-2.84v-11.61c-1.04,1.05-2.26,1.83-3.67,2.34v-2.8c.74-.26,1.55-.76,2.42-1.49.87-.73,1.47-1.59,1.79-2.56h2.31v16.13ZM168.08,155.83c-.34,0-.64.12-.91.36-.27.24-.47.66-.62,1.28-.19.8-.29,2.14-.29,4.03s.09,3.18.26,3.89c.17.71.39,1.18.65,1.41.26.24.56.35.9.35s.64-.12.91-.36c.26-.24.47-.66.62-1.28.19-.79.29-2.13.29-4.02s-.09-3.18-.26-3.89c-.17-.71-.39-1.18-.65-1.42-.26-.24-.56-.36-.9-.36ZM168.08,153.28c1.44,0,2.56.56,3.37,1.67.96,1.31,1.45,3.5,1.45,6.55s-.49,5.23-1.46,6.56c-.81,1.1-1.93,1.65-3.36,1.65s-2.61-.6-3.49-1.8c-.88-1.2-1.33-3.35-1.33-6.43s.49-5.21,1.46-6.54c.81-1.1,1.93-1.65,3.36-1.65ZM161.35,166.56v2.85h-9.98c.11-1.08.43-2.11.97-3.07.54-.97,1.61-2.25,3.2-3.85,1.28-1.29,2.07-2.17,2.36-2.63.39-.63.59-1.26.59-1.89,0-.69-.17-1.21-.51-1.58-.34-.37-.81-.55-1.41-.55s-1.06.19-1.42.58c-.35.38-.55,1.03-.6,1.93l-2.84-.31c.17-1.7.7-2.91,1.59-3.65.89-.74,2-1.11,3.34-1.11,1.47,0,2.62.43,3.46,1.28.84.86,1.25,1.92,1.25,3.19,0,.72-.12,1.41-.36,2.07-.24.65-.62,1.34-1.14,2.05-.34.48-.97,1.16-1.87,2.05-.9.89-1.47,1.48-1.71,1.78-.24.29-.44.58-.58.85h5.66ZM145.98,169.41v-3.07h2.84v3.07h-2.84ZM145.98,160.85v-3.07h2.84v3.07h-2.84ZM140.56,169.41h-2.84v-11.61c-1.04,1.05-2.26,1.83-3.67,2.34v-2.8c.74-.26,1.55-.76,2.42-1.49.87-.73,1.47-1.59,1.79-2.56h2.31v16.13ZM126.57,155.83c-.34,0-.64.12-.91.36-.27.24-.47.66-.62,1.28-.19.8-.29,2.14-.29,4.03s.09,3.18.26,3.89c.17.71.39,1.18.65,1.41.26.24.56.35.9.35s.64-.12.91-.36c.26-.24.47-.66.62-1.28.19-.79.29-2.13.29-4.02s-.09-3.18-.26-3.89c-.17-.71-.39-1.18-.65-1.42-.26-.24-.56-.36-.9-.36ZM126.57,153.28c1.44,0,2.56.56,3.37,1.67.96,1.31,1.45,3.5,1.45,6.55s-.49,5.23-1.46,6.56c-.81,1.1-1.93,1.65-3.36,1.65s-2.61-.6-3.49-1.8-1.33-3.35-1.33-6.43.49-5.21,1.46-6.54c.81-1.1,1.93-1.65,3.36-1.65ZM115.03,155.83c-.34,0-.64.12-.91.36-.27.24-.47.66-.62,1.28-.19.8-.29,2.14-.29,4.03s.09,3.18.26,3.89c.17.71.39,1.18.65,1.41s.56.35.9.35.64-.12.91-.36c.26-.24.47-.66.62-1.28.19-.79.29-2.13.29-4.02s-.09-3.18-.26-3.89c-.17-.71-.39-1.18-.65-1.42-.26-.24-.56-.36-.9-.36ZM115.03,153.28c1.44,0,2.56.56,3.37,1.67.96,1.31,1.45,3.5,1.45,6.55s-.49,5.23-1.46,6.56c-.81,1.1-1.93,1.65-3.36,1.65s-2.61-.6-3.49-1.8c-.88-1.2-1.33-3.35-1.33-6.43s.49-5.21,1.46-6.54c.81-1.1,1.93-1.65,3.36-1.65ZM104.26,163.49v-5.48l-3.39,5.48h3.39ZM104.26,169.41v-3.23h-6.06v-2.68l6.42-10.21h2.39v10.19h1.85v2.69h-1.85v3.23h-2.76ZM94.42,169.41h-2.84v-11.61c-1.04,1.05-2.26,1.83-3.67,2.34v-2.8c.74-.26,1.55-.76,2.42-1.49.87-.73,1.47-1.59,1.79-2.56h2.31v16.13Z"/>
  <g>
    <g class="cls-7">
      <ellipse class="cls-4" cx="140.34" cy="81.63" rx="37.12" ry="48.27"/>
      <path class="cls-4" d="M140.35,35.32c10.72,0,19.42,20.73,19.42,46.31s-8.69,46.31-19.42,46.31-19.42-20.73-19.42-46.31,8.69-46.31,19.42-46.31Z"/>
      <path class="cls-1" d="M140.35,125.25c12.04,0,21.8,9.76,21.8,21.8s-9.76,21.8-21.8,21.8-21.8-9.76-21.8-21.8,9.76-21.8,21.8-21.8Z"/>
      <path class="cls-4" d="M140.35,125.25c12.04,0,21.8,9.76,21.8,21.8s-9.76,21.8-21.8,21.8-21.8-9.76-21.8-21.8,9.76-21.8,21.8-21.8Z"/>
      <path class="cls-1" d="M140.35,38c12.04,0,21.8-9.76,21.8-21.8s-9.76-21.8-21.8-21.8-21.8,9.76-21.8,21.8,9.76,21.8,21.8,21.8Z"/>
      <path class="cls-4" d="M140.35,38c12.04,0,21.8-9.76,21.8-21.8s-9.76-21.8-21.8-21.8-21.8,9.76-21.8,21.8,9.76,21.8,21.8,21.8Z"/>
      <line class="cls-4" x1="140.35" y1="38" x2="140.35" y2="125.25"/>
      <ellipse class="cls-4" cx="140.35" cy="147.16" rx="45.97" ry="35.56"/>
      <path class="cls-4" d="M140.35-19.24c25.39,0,45.97,15.92,45.97,35.56s-20.58,35.56-45.97,35.56-45.97-15.92-45.97-35.56,20.58-35.56,45.97-35.56Z"/>
    </g>
    <g>
      <path class="cls-6" d="M140.34,147.93c-36.56,0-66.3-29.74-66.3-66.3S103.78,15.33,140.34,15.33s66.3,29.74,66.3,66.3-29.74,66.3-66.3,66.3ZM140.34,46.17c-19.56,0-35.47,15.91-35.47,35.46s15.91,35.47,35.47,35.47,35.47-15.91,35.47-35.47-15.91-35.46-35.47-35.46Z"/>
      <rect class="cls-6" x="101.64" y="39.08" width="81.02" height="86.32"/>
    </g>
    <rect class="cls-2" x="74.97" y="55.19" width="133.38" height="52.87"/>
    <path class="cls-3" d="M172.71,77.91c-.13,2.78-.11,5.57.07,8.35.16,2.61.51,4.65,2.81,6.36,2.46,1.83,6.55,2.14,9.16.44,2.97-1.94,3.09-4.09,3.15-7.18.06-2.9.06-5.91,0-9.04-.05-2.6-.04-4.55-2.51-6.21-2.79-1.87-7.6-1.95-10.26.2-2.27,1.84-2.29,4.44-2.42,7.09M166.3,61.64c-5.15,2.7-8.02,6.72-9.39,11.61-1.08,5.27-1.23,9.81-.6,13.74,1.36,8.49,5.64,13.36,13.6,16.28,2.98,1.09,6.19,1.67,9.63,1.68,8.15-.18,14.69-2.05,19.05-6.23,6.65-6.37,7.98-20.68,4-28.75-2.88-5.84-7.92-8.83-13.99-10.49-7.55-2.07-15.28-1.53-22.29,2.15ZM120.92,100.17l.24,3.95h-9.94v-16.65h8.91c1.92,3.01,4.48,5.13,7.72,6.29,2.37.85,5.11,1.25,8.23,1,2-.16,4.18-.91,4.34-2.04.32-2.2-5.25-3.05-6.77-3.48-5.93-1.68-17.66-4.51-20.91-9.89-1.11-1.84-1.76-4.22-1.73-7.39-.17-4.69,2.39-8.91,6.97-11.36,2.75-1.47,6.22-2.3,10.27-2.22,2.7.01,5.32.36,7.84,1.07,2.44.69,4.79,1.71,7.05,3.08l.12.18-.12-3.16h9.94v15.38h-9.34c-3.39-5.16-9.73-6.61-15.51-7-4.31.08-4.58,3.45-1.46,4.72,2.5,1.02,7.13,1.74,10.06,2.59,5.52,1.6,11.23,3.33,14.95,8.03,4.18,5.28,2.89,13.45-2.1,17.68-5.04,4.26-14.88,4.79-21.08,2.88-2.63-.81-5.1-2.06-7.44-3.67h-.24ZM79.12,93.27h7.16v-23.66h-7.16v-10.85h29.3v10.85h-7.16v23.66h7.16v10.85h-29.3v-10.85Z"/>
  </g>
</svg>