<?xml version="1.0" encoding="UTF-8"?>
<svg id="Layer_1" data-name="Layer 1" xmlns="http://www.w3.org/2000/svg" viewBox="0 0 282.38 210.05">
  <defs>
    <style>
      .cls-1, .cls-2 {
        fill: #00377b;
      }

      .cls-3 {
        fill: #fff;
      }

      .cls-2 {
        fill-rule: evenodd;
      }
    </style>
  </defs>
  <path class="cls-1" d="M73.48,22.2v9.23h2.09c.78,0,1.35-.05,1.69-.13.46-.11.83-.31,1.13-.58.3-.27.55-.72.73-1.34.19-.62.29-1.48.29-2.56s-.09-1.9-.29-2.48c-.19-.58-.45-1.03-.8-1.35-.34-.32-.77-.54-1.3-.66-.39-.09-1.16-.13-2.3-.13h-1.26ZM70.65,19.84h5.14c1.16,0,2.04.09,2.65.27.81.24,1.52.67,2.1,1.29.58.61,1.03,1.37,1.33,2.26.3.89.45,1.99.45,3.3,0,1.15-.14,2.14-.43,2.97-.35,1.02-.84,1.84-1.49,2.46-.49.48-1.15.85-1.97,1.11-.62.2-1.45.3-2.49.3h-5.29v-13.95ZM56.58,33.79v-13.95h2.73l5.74,9.35v-9.35h2.61v13.95h-2.82l-5.65-9.17v9.17h-2.61ZM225.75,53.27v-27.9h5.47l11.48,18.69v-18.69h5.22v27.9h-5.64l-11.3-18.34v18.34h-5.22ZM214.73,53.27v-27.9h5.65v27.9h-5.65ZM176.04,53.27v-27.9h5.65v12.36l11.38-12.36h7.57l-10.53,10.86,11.07,17.03h-7.29l-7.68-13.1-4.54,4.66v8.44h-5.65ZM147.83,53.27v-27.9h5.47l11.48,18.69v-18.69h5.22v27.9h-5.64l-11.3-18.34v18.34h-5.22ZM134.5,42.21l-3.88-10.32-3.77,10.32h7.64ZM144.82,53.27h-6.08l-2.41-6.35h-11.19l-2.32,6.35h-5.97l10.83-27.9h5.97l11.17,27.9ZM97.2,37.18h4.17c2.7,0,4.38-.12,5.06-.34.67-.23,1.2-.62,1.58-1.18.38-.56.57-1.26.57-2.1,0-.94-.25-1.69-.75-2.28-.5-.58-1.21-.94-2.12-1.09-.46-.07-1.83-.1-4.11-.1h-4.4v7.09ZM91.55,53.27v-27.9h11.86c2.98,0,5.15.25,6.5.75,1.36.5,2.43,1.39,3.25,2.67.81,1.29,1.22,2.75,1.22,4.4,0,2.1-.61,3.82-1.84,5.19-1.23,1.36-3.06,2.22-5.5,2.58,1.21.71,2.21,1.49,3,2.34.79.85,1.86,2.36,3.19,4.53l3.4,5.44h-6.73l-4.04-6.09c-1.45-2.16-2.44-3.53-2.98-4.09-.53-.56-1.1-.95-1.69-1.16-.6-.21-1.55-.31-2.85-.31h-1.14v11.65h-5.65ZM53.21,48.33v4.95h-18.74c.2-1.88.81-3.66,1.82-5.34,1.01-1.68,3.02-3.92,6.01-6.7,2.41-2.25,3.88-3.77,4.43-4.57.73-1.1,1.1-2.19,1.1-3.28,0-1.2-.32-2.11-.96-2.75-.64-.64-1.52-.96-2.64-.96s-2,.34-2.66,1.01c-.66.67-1.03,1.79-1.14,3.35l-5.34-.53c.32-2.95,1.31-5.06,2.99-6.35,1.68-1.28,3.77-1.92,6.28-1.92,2.75,0,4.91.75,6.49,2.23,1.57,1.49,2.36,3.34,2.36,5.55,0,1.26-.23,2.45-.68,3.6-.45,1.14-1.16,2.32-2.14,3.57-.64.83-1.82,2.02-3.51,3.57-1.69,1.55-2.77,2.58-3.21,3.09-.45.51-.82,1.01-1.1,1.49h10.64Z"/>
  <path class="cls-1" d="M235.95,183.49l4.68-.48c.14,1.06.53,1.9,1.18,2.52.66.62,1.42.93,2.28.93.98,0,1.81-.4,2.49-1.2.68-.8,1.02-2.01,1.02-3.62,0-1.51-.34-2.65-1.01-3.4-.67-.76-1.55-1.13-2.63-1.13-1.35,0-2.56.59-3.63,1.78l-3.79-.55,2.39-12.7h12.4v4.37h-8.84l-.74,4.16c1.04-.52,2.11-.78,3.2-.78,2.08,0,3.85.76,5.29,2.28,1.45,1.51,2.17,3.48,2.17,5.91,0,2.02-.59,3.82-1.75,5.41-1.59,2.16-3.8,3.24-6.62,3.24-2.26,0-4.1-.61-5.53-1.82-1.43-1.22-2.28-2.85-2.56-4.9M232.73,185.43v4.34h-16.42c.18-1.65.71-3.21,1.6-4.68.89-1.47,2.65-3.43,5.26-5.87,2.11-1.97,3.4-3.31,3.88-4.01.64-.97.97-1.92.97-2.87,0-1.05-.28-1.85-.84-2.41-.56-.56-1.33-.84-2.32-.84s-1.75.3-2.33.89c-.57.59-.9,1.57-1,2.94l-4.68-.47c.28-2.58,1.15-4.44,2.62-5.57,1.47-1.12,3.3-1.68,5.5-1.68,2.41,0,4.31.65,5.69,1.96,1.38,1.3,2.07,2.93,2.07,4.87,0,1.1-.2,2.15-.59,3.15-.39,1-1.02,2.04-1.88,3.13-.56.73-1.59,1.77-3.07,3.13-1.49,1.36-2.42,2.26-2.82,2.71-.4.44-.72.88-.96,1.3h9.32ZM205.83,169.07c-.56,0-1.06.18-1.49.55-.44.36-.78,1.01-1.02,1.95-.32,1.21-.48,3.26-.48,6.14s.14,4.85.43,5.93c.28,1.08.64,1.79,1.08,2.15.43.36.93.54,1.49.54s1.06-.18,1.5-.55c.43-.36.77-1.01,1.01-1.95.32-1.2.48-3.24.48-6.12s-.14-4.85-.43-5.92c-.28-1.08-.64-1.8-1.08-2.16-.43-.36-.93-.55-1.49-.55ZM205.83,165.18c2.37,0,4.22.85,5.55,2.54,1.59,2,2.38,5.33,2.38,9.98s-.8,7.97-2.4,10c-1.33,1.67-3.17,2.51-5.54,2.51s-4.3-.92-5.75-2.75c-1.46-1.83-2.19-5.11-2.19-9.81s.8-7.94,2.4-9.97c1.33-1.67,3.17-2.51,5.54-2.51ZM194.75,185.43v4.34h-16.42c.18-1.65.71-3.21,1.6-4.68.89-1.47,2.65-3.43,5.26-5.87,2.11-1.97,3.4-3.31,3.88-4.01.64-.97.97-1.92.97-2.87,0-1.05-.28-1.85-.84-2.41-.56-.56-1.33-.84-2.32-.84s-1.75.3-2.33.89c-.57.59-.9,1.57-1,2.94l-4.68-.47c.28-2.58,1.15-4.44,2.62-5.57,1.47-1.12,3.3-1.68,5.5-1.68,2.41,0,4.31.65,5.69,1.96,1.38,1.3,2.07,2.93,2.07,4.87,0,1.1-.2,2.15-.59,3.15-.39,1-1.02,2.04-1.88,3.13-.56.73-1.59,1.77-3.07,3.13-1.48,1.36-2.42,2.26-2.82,2.71-.4.44-.72.88-.96,1.3h9.32ZM154.73,189.77v-10.29l-8.96-14.16h5.79l5.78,9.68,5.63-9.68h5.68l-8.96,14.19v10.26h-4.95ZM125.54,189.77v-24.45h18.1v4.13h-13.15v5.43h12.23v4.13h-12.23v6.62h13.63v4.13h-18.58ZM109.01,189.77l-8.75-24.45h5.35l6.21,18.1,5.96-18.1h5.26l-8.7,24.45h-5.33ZM83.66,175.66h3.65c2.37,0,3.84-.1,4.43-.3.59-.2,1.05-.55,1.38-1.04.34-.49.5-1.1.5-1.84,0-.83-.22-1.49-.66-2-.44-.51-1.06-.83-1.86-.96-.4-.06-1.6-.09-3.6-.09h-3.85v6.21ZM78.71,189.77v-24.45h10.4c2.61,0,4.51.22,5.7.66,1.19.44,2.13,1.22,2.85,2.34.71,1.13,1.07,2.41,1.07,3.85,0,1.84-.54,3.35-1.61,4.55-1.08,1.19-2.68,1.95-4.82,2.26,1.06.62,1.94,1.3,2.63,2.05.69.75,1.63,2.07,2.8,3.97l2.98,4.77h-5.9l-3.54-5.34c-1.27-1.9-2.14-3.09-2.61-3.59-.47-.49-.96-.83-1.48-1.01-.53-.18-1.36-.27-2.5-.27h-1v10.21h-4.95ZM54.05,165.32h4.95v13.25c0,2.11.06,3.47.18,4.09.21,1,.71,1.81,1.49,2.41.79.61,1.87.91,3.23.91s2.43-.28,3.14-.86c.71-.58,1.13-1.27,1.27-2.11.14-.84.22-2.22.22-4.15v-13.53h4.95v12.86c0,2.94-.13,5.01-.4,6.23-.27,1.21-.76,2.24-1.47,3.07-.71.84-1.67,1.5-2.86,1.99-1.2.5-2.76.75-4.69.75-2.33,0-4.09-.27-5.29-.81-1.2-.54-2.15-1.24-2.85-2.11-.7-.87-1.16-1.76-1.38-2.71-.32-1.4-.48-3.47-.48-6.21v-13.06ZM29.98,181.84l4.81-.48c.29,1.61.87,2.79,1.75,3.55.88.76,2.07,1.13,3.57,1.13,1.58,0,2.78-.34,3.58-1.01.8-.67,1.21-1.46,1.21-2.36,0-.58-.17-1.07-.51-1.48-.34-.4-.93-.76-1.77-1.05-.58-.2-1.88-.56-3.93-1.07-2.63-.66-4.48-1.47-5.55-2.43-1.5-1.35-2.24-2.99-2.24-4.93,0-1.25.35-2.42,1.05-3.51.71-1.09,1.72-1.91,3.05-2.48,1.33-.57,2.92-.85,4.8-.85,3.06,0,5.36.68,6.9,2.04,1.55,1.36,2.36,3.17,2.44,5.44l-4.95.17c-.21-1.26-.66-2.17-1.35-2.72-.69-.55-1.72-.83-3.1-.83s-2.54.3-3.34.89c-.52.38-.78.89-.78,1.53,0,.58.24,1.08.73,1.49.62.53,2.13,1.08,4.52,1.64,2.4.56,4.17,1.16,5.31,1.76,1.15.61,2.05,1.43,2.7,2.49.65,1.05.97,2.35.97,3.89,0,1.4-.39,2.71-1.17,3.94-.78,1.22-1.88,2.13-3.3,2.73-1.42.6-3.2.89-5.32.89-3.09,0-5.46-.71-7.12-2.14-1.66-1.42-2.64-3.5-2.97-6.23ZM214.24,151.62v-24.24h4.95v20.11h12.26v4.13h-17.21ZM191.61,139.38c0,2.77.64,4.87,1.92,6.31,1.28,1.43,2.91,2.15,4.88,2.15s3.59-.71,4.86-2.13c1.26-1.42,1.9-3.55,1.9-6.39s-.62-4.9-1.85-6.28c-1.23-1.38-2.86-2.07-4.91-2.07s-3.68.7-4.93,2.09c-1.25,1.4-1.87,3.51-1.87,6.32ZM186.52,139.54c0-2.49.38-4.59,1.12-6.28.55-1.25,1.31-2.37,2.28-3.36.96-.99,2.01-1.72,3.16-2.21,1.53-.64,3.28-.97,5.28-.97,3.61,0,6.49,1.12,8.66,3.36,2.16,2.24,3.24,5.36,3.24,9.35s-1.08,7.05-3.22,9.28c-2.15,2.24-5.02,3.35-8.61,3.35s-6.53-1.11-8.68-3.34c-2.15-2.22-3.22-5.28-3.22-9.19ZM165.05,139.38c0,2.77.64,4.87,1.92,6.31,1.28,1.43,2.91,2.15,4.88,2.15s3.59-.71,4.86-2.13c1.26-1.42,1.9-3.55,1.9-6.39s-.62-4.9-1.85-6.28c-1.23-1.38-2.86-2.07-4.91-2.07s-3.68.7-4.93,2.09c-1.25,1.4-1.87,3.51-1.87,6.32ZM159.96,139.54c0-2.49.38-4.59,1.12-6.28.55-1.25,1.32-2.37,2.28-3.36.96-.99,2.01-1.72,3.16-2.21,1.53-.64,3.28-.97,5.28-.97,3.61,0,6.49,1.12,8.66,3.36,2.16,2.24,3.24,5.36,3.24,9.35s-1.08,7.05-3.22,9.28c-2.15,2.24-5.02,3.35-8.61,3.35s-6.53-1.11-8.68-3.34c-2.14-2.22-3.22-5.28-3.22-9.19ZM136.32,151.62v-24.45h4.95v9.63h9.63v-9.63h4.95v24.45h-4.95v-10.69h-9.63v10.69h-4.95ZM127.3,142.6l4.78,1.47c-.73,2.69-1.96,4.69-3.67,6-1.71,1.3-3.87,1.96-6.49,1.96-3.25,0-5.92-1.11-8.01-3.33-2.09-2.22-3.14-5.25-3.14-9.11,0-4.07,1.05-7.23,3.15-9.49,2.1-2.25,4.87-3.38,8.29-3.38,2.99,0,5.42.89,7.29,2.66,1.12,1.05,1.95,2.55,2.5,4.51l-4.88,1.16c-.29-1.26-.89-2.27-1.81-3-.92-.73-2.04-1.1-3.35-1.1-1.81,0-3.29.65-4.42,1.95-1.13,1.3-1.7,3.4-1.7,6.32,0,3.08.56,5.29,1.67,6.6,1.12,1.31,2.56,1.97,4.34,1.97,1.32,0,2.45-.42,3.39-1.25.94-.84,1.63-2.15,2.04-3.94ZM87.59,143.7l4.81-.48c.29,1.61.87,2.79,1.75,3.55.88.76,2.07,1.13,3.57,1.13,1.58,0,2.78-.34,3.58-1.01.8-.67,1.21-1.46,1.21-2.36,0-.58-.17-1.07-.51-1.48-.34-.4-.93-.76-1.77-1.05-.58-.2-1.88-.56-3.93-1.07-2.63-.66-4.48-1.47-5.55-2.43-1.5-1.35-2.24-2.99-2.24-4.93,0-1.25.35-2.42,1.05-3.51.71-1.09,1.72-1.91,3.05-2.48,1.33-.57,2.92-.85,4.8-.85,3.06,0,5.36.68,6.9,2.04,1.55,1.36,2.36,3.17,2.44,5.44l-4.95.17c-.21-1.26-.66-2.17-1.35-2.72-.69-.55-1.72-.83-3.1-.83s-2.54.3-3.34.89c-.52.38-.78.89-.78,1.53,0,.58.24,1.08.73,1.48.62.53,2.13,1.08,4.52,1.64,2.4.56,4.17,1.16,5.31,1.76,1.15.61,2.05,1.43,2.7,2.49.65,1.05.97,2.35.97,3.89,0,1.4-.39,2.71-1.17,3.94-.78,1.22-1.88,2.13-3.3,2.73-1.42.6-3.2.89-5.32.89-3.09,0-5.46-.71-7.12-2.14-1.66-1.42-2.64-3.5-2.97-6.23ZM76.94,145.1v-4.68h9.22v4.68h-9.22ZM57.81,140.93v6.56h4.58c1.78,0,2.91-.05,3.39-.15.73-.14,1.33-.46,1.79-.98.46-.52.69-1.21.69-2.08,0-.74-.18-1.36-.53-1.87-.35-.51-.87-.89-1.54-1.12-.67-.23-2.13-.35-4.38-.35h-3.99ZM57.81,131.23v5.63h3.23c1.92,0,3.11-.03,3.58-.09.84-.1,1.51-.39,1.99-.87.48-.48.72-1.12.72-1.9s-.21-1.37-.63-1.84c-.42-.47-1.04-.76-1.86-.85-.49-.06-1.9-.09-4.21-.09h-2.83ZM52.86,127.17h9.78c1.94,0,3.38.08,4.33.24.96.16,1.8.5,2.56,1.01.75.51,1.38,1.19,1.88,2.04.5.85.75,1.8.75,2.86,0,1.14-.31,2.19-.92,3.14-.61.96-1.45,1.67-2.5,2.15,1.48.44,2.62,1.18,3.43,2.23.8,1.05,1.2,2.28,1.2,3.69,0,1.12-.26,2.2-.77,3.25-.52,1.05-1.22,1.89-2.12,2.53-.89.63-2,1.01-3.31,1.16-.82.09-2.81.14-5.95.17h-8.33v-24.45Z"/>
  <path class="cls-2" d="M61,64.69h160.38c6.16,0,11.21,5.04,11.21,11.21v28.21c0,6.16-5.04,11.21-11.21,11.21H61c-6.16,0-11.21-5.04-11.21-11.21v-28.21c0-6.16,5.04-11.21,11.21-11.21"/>
  <path class="cls-3" d="M201.03,102.98v-10.93l-9.52-15.03h6.15l6.14,10.28,5.98-10.28h6.03l-9.52,15.07v10.89h-5.26ZM185.14,92.68l-3.61-9.61-3.5,9.61h7.11ZM194.75,102.98h-5.66l-2.24-5.91h-10.41l-2.16,5.91h-5.56l10.08-25.96h5.55l10.4,25.96ZM150.44,81.41v17.18h3.9c1.46,0,2.51-.08,3.15-.25.85-.21,1.55-.57,2.11-1.08.56-.51,1.01-1.34,1.37-2.5.36-1.16.53-2.75.53-4.76s-.18-3.54-.53-4.62c-.35-1.08-.85-1.91-1.48-2.51-.63-.6-1.44-1.01-2.42-1.22-.72-.16-2.16-.25-4.28-.25h-2.34ZM145.18,77.02h9.56c2.16,0,3.8.16,4.93.5,1.52.45,2.82,1.24,3.9,2.39,1.09,1.14,1.91,2.54,2.48,4.21.56,1.66.85,3.7.85,6.13,0,2.14-.27,3.98-.8,5.52-.65,1.89-1.57,3.42-2.77,4.59-.91.89-2.13,1.58-3.67,2.07-1.15.37-2.7.55-4.63.55h-9.84v-25.96ZM132.49,96.05v-4.97h9.79v4.97h-9.79ZM112.18,81.41v17.18h3.9c1.46,0,2.51-.08,3.15-.25.85-.21,1.55-.57,2.11-1.08.56-.51,1.02-1.34,1.37-2.5.36-1.16.53-2.75.53-4.76s-.18-3.54-.53-4.62c-.35-1.08-.85-1.91-1.48-2.51-.63-.6-1.44-1.01-2.42-1.22-.73-.16-2.16-.25-4.28-.25h-2.34ZM106.93,77.02h9.56c2.16,0,3.8.16,4.93.5,1.52.45,2.82,1.24,3.9,2.39,1.09,1.14,1.91,2.54,2.48,4.21.56,1.66.85,3.7.85,6.13,0,2.14-.27,3.98-.8,5.52-.65,1.89-1.57,3.42-2.77,4.59-.91.89-2.13,1.58-3.67,2.07-1.15.37-2.7.55-4.63.55h-9.84v-25.96ZM96.67,102.98v-25.96h5.26v25.96h-5.26ZM66.58,102.98v-25.96h7.87l4.65,17.7,4.6-17.7h7.89v25.96h-4.86l-.02-20.44-5.12,20.44h-5.05l-5.09-20.44-.02,20.44h-4.86Z"/>
</svg>